<svg xmlns="http://www.w3.org/2000/svg" width="800" height="400" viewBox="0 0 800 400">
  <rect width="800" height="400" fill="#f3f4f6"/>
  <!-- Nodes -->
  <rect x="40" y="170" width="100" height="60" rx="6" fill="#e5e7eb" stroke="#d1d5db" stroke-width="1.5"/>
  <text x="90" y="197" font-family="monospace" font-size="11" fill="#6b7280" text-anchor="middle">Producers</text>
  <text x="90" y="213" font-family="monospace" font-size="10" fill="#9ca3af" text-anchor="middle">(serviços)</text>

  <rect x="190" y="155" width="110" height="90" rx="6" fill="#fef3c7" stroke="#fbbf24" stroke-width="1.5"/>
  <text x="245" y="197" font-family="monospace" font-size="11" fill="#92400e" text-anchor="middle">Kafka</text>
  <text x="245" y="213" font-family="monospace" font-size="10" fill="#b45309" text-anchor="middle">50k evt/s</text>

  <rect x="355" y="155" width="110" height="90" rx="6" fill="#ede9fe" stroke="#a78bfa" stroke-width="1.5"/>
  <text x="410" y="197" font-family="monospace" font-size="11" fill="#5b21b6" text-anchor="middle">Faust</text>
  <text x="410" y="213" font-family="monospace" font-size="10" fill="#7c3aed" text-anchor="middle">workers</text>

  <rect x="520" y="155" width="120" height="90" rx="6" fill="#dcfce7" stroke="#86efac" stroke-width="1.5"/>
  <text x="580" y="197" font-family="monospace" font-size="11" fill="#166534" text-anchor="middle">ClickHouse</text>
  <text x="580" y="213" font-family="monospace" font-size="10" fill="#15803d" text-anchor="middle">OLAP</text>

  <rect x="695" y="155" width="90" height="90" rx="6" fill="#e5e7eb" stroke="#d1d5db" stroke-width="1.5"/>
  <text x="740" y="197" font-family="monospace" font-size="11" fill="#6b7280" text-anchor="middle">Grafana</text>
  <text x="740" y="213" font-family="monospace" font-size="10" fill="#9ca3af" text-anchor="middle">dashboards</text>

  <!-- Arrows -->
  <line x1="140" y1="200" x2="190" y2="200" stroke="#9ca3af" stroke-width="1.5"/>
  <polygon points="188,196 196,200 188,204" fill="#9ca3af"/>
  <line x1="300" y1="200" x2="355" y2="200" stroke="#9ca3af" stroke-width="1.5"/>
  <polygon points="353,196 361,200 353,204" fill="#9ca3af"/>
  <line x1="465" y1="200" x2="520" y2="200" stroke="#9ca3af" stroke-width="1.5"/>
  <polygon points="518,196 526,200 518,204" fill="#9ca3af"/>
  <line x1="640" y1="200" x2="695" y2="200" stroke="#9ca3af" stroke-width="1.5"/>
  <polygon points="693,196 701,200 693,204" fill="#9ca3af"/>

  <text x="400" y="370" font-family="monospace" font-size="11" fill="#9ca3af" text-anchor="middle">Pipeline de Analytics — Arquitetura de Dados</text>
</svg>
